<svg width="183" height="48" viewBox="0 0 183 48" fill="none" xmlns="http://www.w3.org/2000/svg">
<path d="M20 4C8.99145 4 0 12.9573 0 24C0 35.0427 8.95727 44 20 44C31.0085 44 40 35.0427 40 24C40 12.9573 31.0427 4 20 4ZM1.7094 24C1.7094 13.9145 9.91453 5.7094 20 5.7094C27.5214 5.7094 33.6752 12.0342 33.6752 19.7949C33.6752 23.3162 32.4103 26.5641 30.2906 29.0598C31.0427 27.5214 31.453 25.812 31.453 24C31.453 17.6752 26.3248 12.547 20 12.547C19.3846 12.547 18.7692 12.6154 18.188 12.6838C10.5641 13.6068 4.64957 20.2393 4.64957 28.2735C4.64957 31.5897 5.67521 34.7009 7.4188 37.2308C3.89744 33.9145 1.7094 29.1966 1.7094 24ZM18.7009 14.3248C19.1453 14.2906 19.5556 14.2564 20 14.2564V14.2222C25.4017 14.2222 29.7778 18.5983 29.7778 24C29.7778 29.4017 25.4017 33.7778 20 33.7778C14.5983 33.7778 10.2222 29.4017 10.2222 24C10.2222 19.0427 13.9487 14.9402 18.7009 14.3248ZM20 42.2906C12.4786 42.2906 6.32479 36 6.32479 28.2735C6.32479 24.8205 7.55556 21.6752 9.57265 19.2137C8.88889 20.6838 8.51282 22.2906 8.51282 24C8.51282 30.3248 13.641 35.453 19.9658 35.453V35.5556C28.4444 35.5556 35.3162 28.4786 35.3162 19.7607C35.3162 16.3761 34.2564 13.2308 32.4786 10.6667C36.0342 14.0171 38.2222 18.735 38.2222 23.9658C38.3248 34.0855 30.0855 42.2906 20 42.2906Z" fill="#306CBF"/>
<path d="M59.28 20.9119H53.952L53.968 29.9999H51.392V18.7999H59.296L59.28 20.9119Z" fill="#102440"/>
<path d="M60.8763 18.7999H63.4523V26.0959L68.7963 18.7999H71.2283V29.9999H68.6683V22.7199L63.3243 29.9999H60.8763V18.7999Z" fill="#102440"/>
<path d="M85.4908 27.8879V32.3199H83.0908V29.9999H75.1868V32.3199H72.7868L72.8028 27.8879H73.2508C73.9228 27.8666 74.3975 27.3759 74.6748 26.4159C74.9522 25.4559 75.1228 24.0852 75.1868 22.3039L75.3148 18.7999H83.9228V27.8879H85.4908ZM77.4748 22.5439C77.4215 23.8772 77.3095 24.9972 77.1388 25.9039C76.9682 26.7999 76.7068 27.4612 76.3548 27.8879H81.3628V20.9119H77.5228L77.4748 22.5439Z" fill="#102440"/>
<path d="M92.0837 18.7999C93.0757 18.7999 93.9344 18.9652 94.6597 19.2959C95.3957 19.6266 95.9611 20.0959 96.3557 20.7039C96.7504 21.3119 96.9477 22.0319 96.9477 22.8639C96.9477 23.6852 96.7504 24.4052 96.3557 25.0239C95.9611 25.6319 95.3957 26.1012 94.6597 26.4319C93.9344 26.7519 93.0757 26.9119 92.0837 26.9119H89.8277V29.9999H87.2357V18.7999H92.0837ZM91.9397 24.7999C92.7184 24.7999 93.3104 24.6346 93.7157 24.3039C94.1211 23.9626 94.3237 23.4826 94.3237 22.8639C94.3237 22.2346 94.1211 21.7546 93.7157 21.4239C93.3104 21.0826 92.7184 20.9119 91.9397 20.9119H89.8277V24.7999H91.9397Z" fill="#102440"/>
<path d="M104.158 30.1919C102.995 30.1919 101.945 29.9412 101.006 29.4399C100.078 28.9386 99.3472 28.2506 98.8138 27.3759C98.2912 26.4906 98.0298 25.4986 98.0298 24.3999C98.0298 23.3012 98.2912 22.3146 98.8138 21.4399C99.3472 20.5546 100.078 19.8612 101.006 19.3599C101.945 18.8586 102.995 18.6079 104.158 18.6079C105.321 18.6079 106.366 18.8586 107.294 19.3599C108.222 19.8612 108.953 20.5546 109.486 21.4399C110.019 22.3146 110.286 23.3012 110.286 24.3999C110.286 25.4986 110.019 26.4906 109.486 27.3759C108.953 28.2506 108.222 28.9386 107.294 29.4399C106.366 29.9412 105.321 30.1919 104.158 30.1919ZM104.158 27.9839C104.819 27.9839 105.417 27.8346 105.95 27.5359C106.483 27.2266 106.899 26.7999 107.198 26.2559C107.507 25.7119 107.662 25.0932 107.662 24.3999C107.662 23.7066 107.507 23.0879 107.198 22.5439C106.899 21.9999 106.483 21.5786 105.95 21.2799C105.417 20.9706 104.819 20.8159 104.158 20.8159C103.497 20.8159 102.899 20.9706 102.366 21.2799C101.833 21.5786 101.411 21.9999 101.102 22.5439C100.803 23.0879 100.654 23.7066 100.654 24.3999C100.654 25.0932 100.803 25.7119 101.102 26.2559C101.411 26.7999 101.833 27.2266 102.366 27.5359C102.899 27.8346 103.497 27.9839 104.158 27.9839Z" fill="#102440"/>
<path d="M122.491 18.7999V29.9999H119.915V20.9119H114.859V29.9999H112.283V18.7999H122.491Z" fill="#102440"/>
<path d="M130.115 18.7999C131.107 18.7999 131.966 18.9652 132.691 19.2959C133.427 19.6266 133.992 20.0959 134.387 20.7039C134.782 21.3119 134.979 22.0319 134.979 22.8639C134.979 23.6852 134.782 24.4052 134.387 25.0239C133.992 25.6319 133.427 26.1012 132.691 26.4319C131.966 26.7519 131.107 26.9119 130.115 26.9119H127.859V29.9999H125.267V18.7999H130.115ZM129.971 24.7999C130.75 24.7999 131.342 24.6346 131.747 24.3039C132.152 23.9626 132.355 23.4826 132.355 22.8639C132.355 22.2346 132.152 21.7546 131.747 21.4239C131.342 21.0826 130.75 20.9119 129.971 20.9119H127.859V24.7999H129.971Z" fill="#102440"/>
<path d="M142.189 30.1919C141.026 30.1919 139.976 29.9412 139.037 29.4399C138.109 28.9386 137.378 28.2506 136.845 27.3759C136.322 26.4906 136.061 25.4986 136.061 24.3999C136.061 23.3012 136.322 22.3146 136.845 21.4399C137.378 20.5546 138.109 19.8612 139.037 19.3599C139.976 18.8586 141.026 18.6079 142.189 18.6079C143.352 18.6079 144.397 18.8586 145.325 19.3599C146.253 19.8612 146.984 20.5546 147.517 21.4399C148.05 22.3146 148.317 23.3012 148.317 24.3999C148.317 25.4986 148.05 26.4906 147.517 27.3759C146.984 28.2506 146.253 28.9386 145.325 29.4399C144.397 29.9412 143.352 30.1919 142.189 30.1919ZM142.189 27.9839C142.85 27.9839 143.448 27.8346 143.981 27.5359C144.514 27.2266 144.93 26.7999 145.229 26.2559C145.538 25.7119 145.693 25.0932 145.693 24.3999C145.693 23.7066 145.538 23.0879 145.229 22.5439C144.93 21.9999 144.514 21.5786 143.981 21.2799C143.448 20.9706 142.85 20.8159 142.189 20.8159C141.528 20.8159 140.93 20.9706 140.397 21.2799C139.864 21.5786 139.442 21.9999 139.133 22.5439C138.834 23.0879 138.685 23.7066 138.685 24.3999C138.685 25.0932 138.834 25.7119 139.133 26.2559C139.442 26.7999 139.864 27.2266 140.397 27.5359C140.93 27.8346 141.528 27.9839 142.189 27.9839Z" fill="#102440"/>
<path d="M158.986 27.9199V29.9999H150.314V18.7999H158.778V20.8799H152.89V23.3119H158.09V25.3279H152.89V27.9199H158.986Z" fill="#102440"/>
<path d="M165.415 25.4879H163.623V29.9999H161.047V18.7999H163.623V23.3279H165.479L168.423 18.7999H171.159L167.495 24.2079L171.271 29.9999H168.327L165.415 25.4879Z" fill="#102440"/>
<path d="M180.921 20.9119H177.337V29.9999H174.777V20.9119H171.209V18.7999H180.921V20.9119Z" fill="#102440"/>
</svg>
