<svg width="40" height="40" viewBox="0 0 40 40" fill="none" xmlns="http://www.w3.org/2000/svg">
<path d="M8.53487 30.2382L8.08269 31.9055L9.75367 31.4673L14.9497 30.1046C16.5267 30.8654 18.245 31.2812 20.0366 31.2812C26.3661 31.2812 31.5 26.1701 31.5 19.8542V19.8406L31.4996 19.8271C31.4201 16.8952 30.3052 14.0191 28.1327 11.8542C25.9709 9.69986 23.0834 8.5 20.0366 8.5C13.7071 8.5 8.57317 13.6111 8.57317 19.9271C8.57317 21.7858 9.05595 23.6353 9.8928 25.2313L8.53487 30.2382ZM23.1883 23.8954L23.1769 23.897L23.1654 23.8989C22.8661 23.9486 22.4445 23.9525 22.02 23.8561C21.877 23.8007 21.7451 23.7541 21.6153 23.7083C21.3994 23.632 21.1892 23.5578 20.944 23.4484C21.1218 23.4893 21.3196 23.502 21.5308 23.4599C21.9128 23.3838 22.1587 23.1616 22.279 23.0417C22.3848 22.9363 22.5728 22.7262 22.7485 22.5122C22.8088 22.4387 22.8796 22.3505 22.9515 22.2552C23.0848 22.3186 23.2393 22.394 23.3955 22.4719C23.5827 22.5652 23.7677 22.6596 23.9171 22.7383C23.9919 22.7778 24.0548 22.8117 24.1029 22.8385C24.1397 22.859 24.1588 22.8704 24.1653 22.8743C24.1685 22.8762 24.1686 22.8762 24.1661 22.8746L24.2179 22.909L24.2515 22.9257C24.2328 23.0313 24.2018 23.1525 24.1535 23.2828C24.15 23.288 24.1303 23.3202 24.0757 23.3759C24.0021 23.4511 23.897 23.5367 23.7688 23.6207C23.6419 23.7039 23.5097 23.7743 23.3924 23.8249C23.3344 23.85 23.2849 23.8681 23.246 23.8802C23.2094 23.8916 23.1906 23.895 23.1884 23.8954C23.1882 23.8954 23.1882 23.8954 23.1883 23.8954ZM17.1652 17.5931C17.1719 17.6083 17.1785 17.6234 17.1852 17.6385C17.0731 17.7535 16.9757 17.8772 16.9159 17.9537C16.9003 17.9738 16.8878 17.9899 16.8769 18.0039C16.8603 18.0254 16.8476 18.0418 16.8338 18.0591C16.8312 18.0624 16.8289 18.0652 16.8269 18.0676C16.7632 18.1295 16.5674 18.3236 16.4526 18.581C16.3757 18.7533 16.3236 18.9703 16.3477 19.2167C16.3552 19.2927 16.3692 19.365 16.3884 19.4335C16.3077 19.3189 16.1928 19.1428 16.0761 18.9186C15.8568 18.4972 15.6951 18.0242 15.6951 17.5937C15.6951 17.118 15.8111 16.8099 15.9264 16.6022C16.0209 16.4318 16.0879 16.3532 16.1776 16.2481C16.2108 16.2092 16.2471 16.1667 16.289 16.1146C16.294 16.1146 16.2993 16.1146 16.3049 16.1146H16.3057H16.3066H16.3075H16.3083H16.3092H16.3101H16.3109H16.3118H16.3127H16.3135H16.3144H16.3153H16.3162H16.317H16.3179H16.3188H16.3197H16.3206H16.3215H16.3224H16.3232H16.3241H16.325H16.3259H16.3268H16.3277H16.3286H16.3295H16.3304H16.3313H16.3322H16.3331H16.334H16.335H16.3359H16.3368H16.3377H16.3386H16.3395H16.3404H16.3414H16.3423H16.3432H16.3441H16.3451H16.346H16.3469H16.3478H16.3488H16.3497H16.3506H16.3516H16.3525H16.3535H16.3544H16.3553H16.3563H16.3572H16.3582H16.3591H16.3601H16.361H16.3619H16.3629H16.3639H16.3648H16.3658H16.3667H16.3677H16.3686H16.3696H16.3705H16.3715H16.3725H16.3734H16.3744H16.3754H16.3763H16.3773H16.3783H16.3792H16.3802H16.3812H16.3822H16.3831H16.3841H16.3851H16.3861H16.3871H16.388H16.389H16.39H16.391H16.392H16.393H16.3939H16.3949H16.3959H16.3969H16.3979H16.3989H16.3999H16.4009H16.4019H16.4029H16.4039H16.4049H16.4059H16.4069H16.4079H16.4089H16.4099H16.4109H16.4119H16.4129H16.4139H16.4149H16.4159H16.4169H16.4179H16.419H16.42H16.421H16.422H16.423H16.424H16.425H16.4261H16.4271H16.4281H16.4291H16.4301H16.4312H16.4322H16.4332H16.4342H16.4353H16.4363H16.4373H16.4383H16.4394H16.4404H16.4414H16.4425H16.4435H16.4445H16.4456H16.4466H16.4476H16.4487H16.4497H16.4507H16.4518H16.4528H16.4538H16.4549H16.4559H16.457H16.458H16.459H16.4601H16.4611H16.4622H16.4632H16.4643H16.4653H16.4663H16.4674H16.4684H16.4695H16.4705H16.4716H16.4726H16.4737H16.4747H16.4758H16.4768H16.4779H16.4789H16.48H16.481H16.4821H16.4832H16.4842H16.4853H16.4863H16.4874H16.4884H16.4895H16.4905H16.4916H16.4927H16.4937H16.4948H16.4958H16.4969H16.498H16.499H16.5001H16.5011H16.5022H16.5033H16.5043H16.5054H16.5065H16.5075H16.5086H16.5096H16.5107H16.5118H16.5128H16.5139H16.515H16.516H16.5171H16.5182H16.5192H16.5203H16.5214H16.5224H16.5235H16.5246H16.5256H16.5267H16.5278H16.5288H16.5299H16.531H16.5321H16.5331H16.5342H16.5353H16.5363H16.5374H16.5385H16.5395H16.5406H16.5417H16.5428H16.5438H16.5449H16.546H16.547H16.5481H16.5492H16.5503H16.5513H16.5524H16.5535H16.5544C16.616 16.2625 16.6897 16.4435 16.768 16.6357C16.8222 16.7689 16.8787 16.9074 16.9347 17.0438C17.0172 17.245 17.0986 17.4408 17.1652 17.5931ZM16.4532 15.8849C16.4532 15.8849 16.4541 15.8861 16.4556 15.8888C16.454 15.8864 16.4532 15.885 16.4532 15.8849ZM24.2717 22.6081C24.2715 22.6071 24.2714 22.6066 24.2714 22.6066L24.2717 22.6081Z" fill="white" stroke="#48C95F" stroke-width="2"/>
</svg>
