<svg width="45" height="45" viewBox="0 0 45 45" fill="none" xmlns="http://www.w3.org/2000/svg">
<path d="M2.03487 41.7382L1.58269 43.4055L3.25367 42.9673L13.477 40.2863C16.4453 41.7719 19.6876 42.5833 23.0697 42.5833C34.6291 42.5833 44 33.25 44 21.7222V21.7087L43.9996 21.6951C43.8539 16.3223 41.8122 11.0712 37.8522 7.125C33.9029 3.18945 28.6322 1 23.0697 1C11.5102 1 2.13937 10.3333 2.13937 21.8611C2.13937 25.3705 3.08486 28.8701 4.71548 31.8544L2.03487 41.7382ZM29.2005 30.3155L29.189 30.3172L29.1776 30.3191C28.4823 30.4345 27.532 30.4388 26.5789 30.2114C26.333 30.1151 26.087 30.0279 25.8339 29.9382C25.2641 29.7362 24.658 29.5214 23.9338 29.1605L23.903 29.1452L23.8713 29.132C19.2876 27.2288 16.2663 22.6762 15.845 22.0412C15.8339 22.0246 15.8247 22.0107 15.8172 21.9995L15.7621 21.9172L15.6919 21.8472C15.6935 21.8488 15.6931 21.8483 15.6906 21.8455C15.6824 21.8362 15.6523 21.8024 15.5995 21.7358C15.5369 21.6571 15.4555 21.5488 15.3618 21.4146C15.1741 21.1457 14.9447 20.7834 14.7233 20.3579C14.2723 19.4911 13.8955 18.4409 13.8955 17.4167C13.8955 16.3472 14.1604 15.6103 14.4494 15.0891C14.6696 14.6922 14.869 14.4559 15.0724 14.2148C15.1688 14.1006 15.2661 13.9853 15.3669 13.8513C15.4324 13.7643 15.4835 13.7414 15.5386 13.7257C15.629 13.6999 15.7374 13.6944 15.9617 13.6944H15.9633H15.9649H15.9666H15.9682H15.9699H15.9715H15.9732H15.9748H15.9765H15.9782H15.9798H15.9815H15.9832H15.9848H15.9865H15.9882H15.9899H15.9916H15.9933H15.995H15.9967H15.9984H16.0001H16.0018H16.0035H16.0052H16.0069H16.0086H16.0103H16.012H16.0138H16.0155H16.0172H16.019H16.0207H16.0224H16.0242H16.0259H16.0277H16.0294H16.0312H16.0329H16.0347H16.0364H16.0382H16.04H16.0417H16.0435H16.0453H16.0471H16.0488H16.0506H16.0524H16.0542H16.056H16.0578H16.0596H16.0614H16.0632H16.065H16.0668H16.0686H16.0704H16.0722H16.074H16.0758H16.0776H16.0795H16.0813H16.0831H16.0849H16.0868H16.0886H16.0904H16.0923H16.0941H16.0959H16.0978H16.0996H16.1015H16.1033H16.1052H16.107H16.1089H16.1107H16.1126H16.1145H16.1163H16.1182H16.1201H16.1219H16.1238H16.1257H16.1276H16.1294H16.1313H16.1332H16.1351H16.137H16.1389H16.1408H16.1427H16.1445H16.1464H16.1483H16.1502H16.1521H16.1541H16.156H16.1579H16.1598H16.1617H16.1636H16.1655H16.1674H16.1694H16.1713H16.1732H16.1751H16.177H16.179H16.1809H16.1828H16.1848H16.1867H16.1886H16.1906H16.1925H16.1944H16.1964H16.1983H16.2003H16.2022H16.2042H16.2061H16.2081H16.21H16.212H16.2139H16.2159H16.2178H16.2198H16.2218H16.2237H16.2257H16.2277H16.2296H16.2316H16.2336H16.2355H16.2375H16.2395H16.2415H16.2434H16.2454H16.2474H16.2494H16.2514H16.2533H16.2553H16.2573H16.2593H16.2613H16.2633H16.2653H16.2672H16.2692H16.2712H16.2732H16.2752H16.2772H16.2792H16.2812H16.2832H16.2852H16.2872H16.2892H16.2912H16.2932H16.2952H16.2972H16.2992H16.3012H16.3033H16.3053H16.3073H16.3093H16.3113H16.3133H16.3153H16.3173H16.3194H16.3214H16.3234H16.3254H16.3274H16.3294H16.3315H16.3335H16.3355H16.3375H16.3396H16.3416H16.3436H16.3456H16.3477H16.3497H16.3517H16.3537H16.3558H16.3578H16.3598H16.3619H16.3639H16.3659H16.3679H16.37H16.372H16.374H16.3761H16.3781H16.3801H16.3822H16.3842H16.3862H16.3883H16.3903H16.3924H16.3944H16.3964H16.3985H16.4005H16.4025H16.4046H16.4066H16.4087H16.4107H16.4127H16.4148H16.4168H16.4189H16.4209H16.4229H16.425H16.427H16.4291H16.4311H16.4331H16.4352H16.4372H16.4393H16.4413H16.4433H16.4454H16.4474H16.4495H16.4515H16.4536H16.4556H16.4576H16.4597H16.4617H16.4638H16.4658H16.4678H16.4699H16.4719H16.474H16.476H16.4781H16.4801H16.4821H16.4842H16.4862H16.4882H16.4903H16.4923H16.4944H16.4964H16.4984H16.5005H16.5025H16.5046H16.5066H16.5086H16.5107H16.5127H16.5147H16.5168H16.5188H16.5208H16.5229H16.5249H16.5269H16.529H16.531H16.533H16.5351H16.5371H16.5391H16.5412H16.5432H16.5452H16.5472H16.5493H16.5513H16.5533H16.5553H16.5574H16.5594H16.5614H16.5634H16.5655H16.5675H16.5695H16.5715H16.5735H16.5756H16.5776H16.5796H16.5816H16.5836H16.5856H16.5876H16.5897H16.5917H16.5937H16.5957H16.5977H16.5997H16.6017H16.6037H16.6057H16.6077H16.6097H16.6117H16.6137H16.6157H16.6177H16.6197H16.6217H16.6237H16.6257H16.6277H16.6297H16.6317H16.6337H16.6357H16.6377H16.6397H16.6416H16.6436H16.6456H16.6476H16.6496H16.6516H16.6535H16.6555H16.6575H16.6595H16.6614H16.6634H16.6654H16.6673H16.6693H16.6713H16.6732H16.6752H16.6772H16.6791H16.6811H16.6831H16.685H16.687H16.6889H16.6909H16.6928H16.6948H16.6967H16.6987H16.7006H16.7026H16.7045H16.7064H16.7084H16.7103H16.7123H16.7142H16.7161H16.718H16.72H16.7219H16.7238H16.7258H16.7277H16.7296H16.7315H16.7334H16.7353H16.7373H16.7392H16.7411H16.743H16.7449H16.7468H16.7487H16.7506H16.7525H16.7544H16.7563H16.7582H16.7601H16.762H16.7639H16.7657H16.7676H16.7695H16.7714H16.7733H16.7751H16.777H16.7789H16.7807H16.7826H16.7845H16.7863H16.7882H16.7901H16.7919H16.7938H16.7956H16.7975H16.7993H16.8012H16.803H16.8048H16.8067H16.8085H16.8104H16.8122H16.814H16.8158H16.8177H16.8195H16.8213H16.8231H16.8249H16.8268H16.8286H16.8304H16.8322H16.834H16.8358H16.8376H16.8394H16.8412H16.843H16.8448H16.8465H16.8483H16.8501H16.8519H16.8537H16.8554H16.8572H16.859H16.8607H16.8625H16.8643H16.866H16.8678H16.8695H16.8713H16.873H16.8748H16.8765H16.8782H16.88H16.8817H16.8834H16.8852H16.8869H16.8886H16.8903H16.8921H16.8938H16.8955H16.8972H16.8989H16.9006H16.9023H16.904H16.9057H16.9074H16.9091H16.9107H16.9124H16.9141H16.9158H16.9175H16.9191H16.9208H16.9224H16.9241H16.9258H16.9274H16.9291H16.9307H16.9324H16.934H16.9356H16.9373C16.9645 13.6944 16.9926 13.6937 17.0177 13.6928C17.0475 13.7413 17.0872 13.8149 17.1336 13.9229C17.2721 14.245 17.4726 14.737 17.6867 15.2628C17.7892 15.5143 17.8948 15.7736 17.9983 16.0256C18.1553 16.4082 18.307 16.773 18.4295 17.0532C18.4902 17.1921 18.548 17.3202 18.5982 17.4228C18.6202 17.4678 18.645 17.5169 18.6713 17.5641C18.5445 17.8154 18.4667 17.953 18.322 18.0972C18.1339 18.2847 17.9607 18.5029 17.8389 18.659C17.8135 18.6915 17.7912 18.7203 17.7708 18.7466C17.7358 18.7916 17.7064 18.8295 17.677 18.8664C17.6374 18.9162 17.6217 18.9337 17.6218 18.9338C17.6219 18.9338 17.623 18.9327 17.6251 18.9306C17.6179 18.9378 17.6097 18.9458 17.6006 18.9547C17.4823 19.0713 17.2184 19.3312 17.0693 19.6656C16.9759 19.875 16.9155 20.1312 16.9438 20.4199C16.9691 20.679 17.0605 20.9096 17.1836 21.1088C17.5404 21.7979 18.5781 23.3838 20.1683 24.8244L20.1791 24.8342L20.1902 24.8437C21.9639 26.3588 23.4509 27.0303 24.1525 27.3472C24.2694 27.4 24.3646 27.443 24.4356 27.4784C24.8246 27.6722 25.2673 27.7969 25.739 27.7029C26.2037 27.6103 26.5159 27.3386 26.7024 27.1528C26.8743 26.9814 27.2113 26.6064 27.5359 26.211C27.7903 25.9012 28.0952 25.5097 28.3042 25.1629C28.3123 25.1656 28.3207 25.1684 28.3294 25.1712C28.3253 25.1699 28.3366 25.1736 28.3698 25.1871C28.4002 25.1995 28.44 25.2164 28.4894 25.2381C28.5883 25.2814 28.7139 25.3389 28.8599 25.4074C29.1515 25.5443 29.51 25.7186 29.8711 25.8985C30.6274 26.2754 31.2915 26.6257 31.4362 26.7218L31.4879 26.7562L31.5436 26.7839C31.7639 26.8937 31.9246 26.9739 32.0476 27.0387C32.05 27.1286 32.0477 27.2342 32.038 27.354C32.0106 27.6957 31.9264 28.1249 31.7505 28.5922C31.6576 28.8391 31.2936 29.2475 30.6747 29.6533C30.0765 30.0455 29.4863 30.2749 29.2005 30.3155Z" fill="white" stroke="#48C95F" stroke-width="2"/>
</svg>
